<?xml version="1.0" standalone="no"?>
<!DOCTYPE svg PUBLIC "-//W3C//DTD SVG 20010904//EN"
 "http://www.w3.org/TR/2001/REC-SVG-20010904/DTD/svg10.dtd">
<svg version="1.0" xmlns="http://www.w3.org/2000/svg"
 width="150.000000pt" height="150.000000pt" viewBox="0 0 150.000000 150.000000"
 preserveAspectRatio="xMidYMid meet">

<g transform="translate(0.000000,150.000000) scale(0.100000,-0.100000)"
fill="#000000" stroke="none">
<path d="M644 1336 c-66 -30 -153 -154 -170 -242 -6 -32 -10 -35 -75 -54 -37
-11 -71 -25 -75 -31 -6 -11 -103 -721 -99 -727 1 -1 157 -29 346 -62 189 -33
354 -62 367 -65 l22 -5 0 531 0 531 -29 -7 c-25 -5 -30 -2 -41 25 -16 38 -64
80 -92 80 -12 0 -29 7 -38 15 -25 22 -80 28 -116 11z m76 -32 c0 -3 -18 -26
-40 -51 -23 -26 -47 -68 -56 -98 -15 -47 -21 -54 -54 -64 -72 -21 -76 -11 -30
77 36 70 57 97 95 122 28 18 85 28 85 14z m44 -56 c3 -13 6 -39 6 -59 0 -34
-2 -36 -56 -53 -31 -10 -58 -15 -61 -12 -17 16 68 146 95 146 5 0 12 -10 16
-22z m73 0 c11 -13 24 -33 27 -44 5 -18 1 -23 -20 -28 -14 -4 -28 -6 -29 -4
-8 10 -15 98 -7 98 5 0 18 -10 29 -22z m-61 -281 c4 -3 -1 -38 -11 -76 -17
-69 -18 -71 -44 -63 -52 14 -102 7 -122 -17 -30 -37 -29 -39 70 -113 62 -46
83 -79 89 -137 15 -159 -136 -257 -283 -184 -57 29 -64 39 -53 86 17 71 15 69
42 52 56 -37 120 -39 131 -4 11 32 -4 57 -57 95 -91 67 -111 162 -53 260 45
76 126 116 227 111 32 -2 60 -6 64 -10z"/>
</g>
</svg>
